<?xml version="1.0" encoding="UTF-8" standalone="no"?>
<svg
xmlns:svg="http://www.w3.org/2000/svg"
xmlns="http://www.w3.org/2000/svg"
viewBox="0 0 1024 1024"
version="1.1"
>
<g fill="#fff">
<path d="m 78.322558,661.09366 0,362.90634 837.476192,0 0,-362.90634 -111.66349,0 0,251.24285 -614.14921,0 0,-251.24285 -111.663492,0 z" />
<path d="M 676.93264,-6.1897806e-6 610.0327,50.379421 878.7775,407.12465 945.67744,356.74521 676.93264,-6.1897806e-6 Z M 516.79804,145.14072 462.38389,208.82381 802.00885,498.88717 856.423,435.20408 516.79804,145.14072 Z M 380.87175,336.13545 344.77739,411.7591 747.97636,603.95335 784.0162,528.38422 380.87175,336.13545 Z m -84.51095,206.69741 -16.9022,82.0574 437.49407,89.90874 16.9022,-82.0574 -437.49407,-89.90874 z m -22.62713,202.00842 0,83.74762 446.65397,0 0,-83.74762 -446.65397,0 z" />
</g>
</svg>
